<?xml version="1.0" encoding="UTF-8" standalone="no"?>
<!-- Created with Inkscape (http://www.inkscape.org/) -->

<svg
   xmlns:dc="http://purl.org/dc/elements/1.1/"
   xmlns:cc="http://creativecommons.org/ns#"
   xmlns:rdf="http://www.w3.org/1999/02/22-rdf-syntax-ns#"
   xmlns:svg="http://www.w3.org/2000/svg"
   xmlns="http://www.w3.org/2000/svg"
   xmlns:xlink="http://www.w3.org/1999/xlink"
   xmlns:sodipodi="http://sodipodi.sourceforge.net/DTD/sodipodi-0.dtd"
   xmlns:inkscape="http://www.inkscape.org/namespaces/inkscape"
   width="512"
   height="512"
   id="svg2"
   version="1.1"
   inkscape:version="0.48.2 r9819"
   inkscape:export-filename="/Users/rkemp/Dropbox/workspaces/swan-git/interdroid-swan/icon-lake.png"
   inkscape:export-xdpi="90"
   inkscape:export-ydpi="90"
   sodipodi:docname="logo-lake.svg">
  <defs
     id="defs4">
    <linearGradient
       id="linearGradient3793">
      <stop
         id="stop3795"
         offset="0"
         style="stop-color:#000000;stop-opacity:1;" />
      <stop
         style="stop-color:#858585;stop-opacity:1;"
         offset="0.23567708"
         id="stop3797" />
      <stop
         id="stop3799"
         offset="0.94270831"
         style="stop-color:#aaaaaa;stop-opacity:1;" />
      <stop
         style="stop-color:#c4c4c4;stop-opacity:1;"
         offset="1"
         id="stop3801" />
    </linearGradient>
    <linearGradient
       id="linearGradient3771">
      <stop
         style="stop-color:#000000;stop-opacity:1;"
         offset="0"
         id="stop3773" />
      <stop
         id="stop3781"
         offset="0.23567708"
         style="stop-color:#1d1d1d;stop-opacity:1;" />
      <stop
         style="stop-color:#4a4a4a;stop-opacity:1;"
         offset="0.94270831"
         id="stop3783" />
      <stop
         id="stop3779"
         offset="1"
         style="stop-color:#8e8e8e;stop-opacity:1;" />
    </linearGradient>
    <linearGradient
       inkscape:collect="always"
       id="linearGradient3763">
      <stop
         style="stop-color:#ffffff;stop-opacity:1;"
         offset="0"
         id="stop3765" />
      <stop
         style="stop-color:#ffffff;stop-opacity:0;"
         offset="1"
         id="stop3767" />
    </linearGradient>
    <linearGradient
       inkscape:collect="always"
       xlink:href="#linearGradient3763"
       id="linearGradient3769"
       x1="677.14288"
       y1="345.21933"
       x2="697.14539"
       y2="345.21933"
       gradientUnits="userSpaceOnUse" />
    <filter
       inkscape:collect="always"
       id="filter3849"
       color-interpolation-filters="sRGB">
      <feGaussianBlur
         inkscape:collect="always"
         stdDeviation="10.428363"
         id="feGaussianBlur3851" />
    </filter>
  </defs>
  <sodipodi:namedview
     id="base"
     pagecolor="#ffffff"
     bordercolor="#666666"
     borderopacity="1.0"
     inkscape:pageopacity="0.0"
     inkscape:pageshadow="2"
     inkscape:zoom="0.35"
     inkscape:cx="-133.57143"
     inkscape:cy="520"
     inkscape:document-units="px"
     inkscape:current-layer="layer1"
     showgrid="false"
     inkscape:window-width="1680"
     inkscape:window-height="1006"
     inkscape:window-x="0"
     inkscape:window-y="22"
     inkscape:window-maximized="0" />
  <metadata
     id="metadata7">
    <rdf:RDF>
      <cc:Work
         rdf:about="">
        <dc:format>image/svg+xml</dc:format>
        <dc:type
           rdf:resource="http://purl.org/dc/dcmitype/StillImage" />
        <dc:title></dc:title>
      </cc:Work>
    </rdf:RDF>
  </metadata>
  <g
     inkscape:label="Layer 1"
     inkscape:groupmode="layer"
     id="layer1"
     transform="translate(0,-540.36218)">
    <g
       id="g3857"
       transform="matrix(0.58081671,0,0,0.58081671,183.81211,321.27461)">
      <g
         transform="matrix(0.5979942,0,0,0.5979942,-3.5109538,350.13165)"
         id="g3853">
        <path
           sodipodi:nodetypes="sssscccssccscsss"
           inkscape:connector-curvature="0"
           id="path3807"
           d="m 631.85343,640.93361 c 71.8467,-75.34 -126.15578,-209.88466 -93.91382,-314.28572 14.25539,-46.15967 65.73893,-81.05201 109.14308,-80 43.65892,1.05818 101.33553,36.91732 106.60488,85.71429 2.82371,26.14908 -45.6878,60 -45.6878,60 L 758.764,478.07647 639.46807,366.64789 c 0,0 54.91427,168.61001 106.60487,234.28572 55.35143,70.32699 66.28911,70.04217 71.06992,125.71428 4.42895,51.57473 -43.14959,114.28572 -43.14959,114.28572 l -616.78536,0 c 0,0 -170.8312,-89.40318 -129.448776,-137.14286 21.455901,-24.75201 167.521946,-5.71429 167.521946,-5.71429 0,0 -119.647713,-22.90104 -131.986988,-71.42857 C 39.972899,534.93099 194.56999,482.94964 279.04205,475.21932 406.05426,463.59601 538.6121,738.7085 631.85343,640.93361 z"
           style="fill:#ffffff;fill-opacity:1;stroke:#ffffff;stroke-width:28.7914753;stroke-linecap:butt;stroke-linejoin:miter;stroke-miterlimit:4;stroke-opacity:1;stroke-dasharray:none;filter:url(#filter3849)" />
        <path
           style="fill:#cecece;fill-opacity:1;stroke:#2e2e2e;stroke-width:28.7914753;stroke-linecap:butt;stroke-linejoin:miter;stroke-miterlimit:4;stroke-opacity:1;stroke-dasharray:none"
           d="m 631.85343,640.93361 c 71.8467,-75.34 -126.15578,-209.88466 -93.91382,-314.28572 14.25539,-46.15967 65.73893,-81.05201 109.14308,-80 43.65892,1.05818 101.33553,36.91732 106.60488,85.71429 2.82371,26.14908 -45.6878,60 -45.6878,60 L 758.764,478.07647 639.46807,366.64789 c 0,0 54.91427,168.61001 106.60487,234.28572 55.35143,70.32699 66.28911,70.04217 71.06992,125.71428 4.42895,51.57473 -43.14959,114.28572 -43.14959,114.28572 l -616.78536,0 c 0,0 -170.8312,-89.40318 -129.448776,-137.14286 21.455901,-24.75201 167.521946,-5.71429 167.521946,-5.71429 0,0 -119.647713,-22.90104 -131.986988,-71.42857 C 39.972899,534.93099 194.56999,482.94964 279.04205,475.21932 406.05426,463.59601 538.6121,738.7085 631.85343,640.93361 z"
           id="path2985"
           inkscape:connector-curvature="0"
           sodipodi:nodetypes="sssscccssccscsss" />
      </g>
    </g>
    <g
       transform="matrix(-0.58081671,0,0,0.58081671,345.33076,481.2746)"
       id="g3012">
      <g
         id="g3014"
         transform="matrix(0.5979942,0,0,0.5979942,-3.5109538,350.13165)">
        <path
           style="fill:#ffffff;fill-opacity:1;stroke:#ffffff;stroke-width:28.7914753;stroke-linecap:butt;stroke-linejoin:miter;stroke-miterlimit:4;stroke-opacity:1;stroke-dasharray:none;filter:url(#filter3849)"
           d="m 631.85343,640.93361 c 71.8467,-75.34 -126.15578,-209.88466 -93.91382,-314.28572 14.25539,-46.15967 65.73893,-81.05201 109.14308,-80 43.65892,1.05818 101.33553,36.91732 106.60488,85.71429 2.82371,26.14908 -45.6878,60 -45.6878,60 L 758.764,478.07647 639.46807,366.64789 c 0,0 54.91427,168.61001 106.60487,234.28572 55.35143,70.32699 66.28911,70.04217 71.06992,125.71428 4.42895,51.57473 -43.14959,114.28572 -43.14959,114.28572 l -616.78536,0 c 0,0 -170.8312,-89.40318 -129.448776,-137.14286 21.455901,-24.75201 167.521946,-5.71429 167.521946,-5.71429 0,0 -119.647713,-22.90104 -131.986988,-71.42857 C 39.972899,534.93099 194.56999,482.94964 279.04205,475.21932 406.05426,463.59601 538.6121,738.7085 631.85343,640.93361 z"
           id="path3016"
           inkscape:connector-curvature="0"
           sodipodi:nodetypes="sssscccssccscsss" />
        <path
           sodipodi:nodetypes="sssscccssccscsss"
           inkscape:connector-curvature="0"
           id="path3018"
           d="m 631.85343,640.93361 c 71.8467,-75.34 -126.15578,-209.88466 -93.91382,-314.28572 14.25539,-46.15967 65.73893,-81.05201 109.14308,-80 43.65892,1.05818 101.33553,36.91732 106.60488,85.71429 2.82371,26.14908 -45.6878,60 -45.6878,60 L 758.764,478.07647 639.46807,366.64789 c 0,0 54.91427,168.61001 106.60487,234.28572 55.35143,70.32699 66.28911,70.04217 71.06992,125.71428 4.42895,51.57473 -43.14959,114.28572 -43.14959,114.28572 l -616.78536,0 c 0,0 -170.8312,-89.40318 -129.448776,-137.14286 21.455901,-24.75201 167.521946,-5.71429 167.521946,-5.71429 0,0 -119.647713,-22.90104 -131.986988,-71.42857 C 39.972899,534.93099 194.56999,482.94964 279.04205,475.21932 406.05426,463.59601 538.6121,738.7085 631.85343,640.93361 z"
           style="fill:#cecece;fill-opacity:1;stroke:#2e2e2e;stroke-width:28.7914753;stroke-linecap:butt;stroke-linejoin:miter;stroke-miterlimit:4;stroke-opacity:1;stroke-dasharray:none" />
      </g>
    </g>
  </g>
</svg>
