<?xml version="1.0" encoding="UTF-8" standalone="no"?>
<!-- Created with Inkscape (http://www.inkscape.org/) -->

<svg
   xmlns:dc="http://purl.org/dc/elements/1.1/"
   xmlns:cc="http://creativecommons.org/ns#"
   xmlns:rdf="http://www.w3.org/1999/02/22-rdf-syntax-ns#"
   xmlns:svg="http://www.w3.org/2000/svg"
   xmlns="http://www.w3.org/2000/svg"
   xmlns:xlink="http://www.w3.org/1999/xlink"
   xmlns:sodipodi="http://sodipodi.sourceforge.net/DTD/sodipodi-0.dtd"
   xmlns:inkscape="http://www.inkscape.org/namespaces/inkscape"
   width="512"
   height="512"
   id="svg2"
   version="1.1"
   inkscape:version="0.48.2 r9819"
   inkscape:export-filename="/Users/rkemp/Dropbox/workspaces/swan-git/interdroid-swan/icon_warning.png"
   inkscape:export-xdpi="90"
   inkscape:export-ydpi="90"
   sodipodi:docname="logo-warning.svg">
  <defs
     id="defs4">
    <linearGradient
       id="linearGradient3793">
      <stop
         id="stop3795"
         offset="0"
         style="stop-color:#000000;stop-opacity:1;" />
      <stop
         style="stop-color:#858585;stop-opacity:1;"
         offset="0.23567708"
         id="stop3797" />
      <stop
         id="stop3799"
         offset="0.94270831"
         style="stop-color:#aaaaaa;stop-opacity:1;" />
      <stop
         style="stop-color:#c4c4c4;stop-opacity:1;"
         offset="1"
         id="stop3801" />
    </linearGradient>
    <linearGradient
       id="linearGradient3771">
      <stop
         style="stop-color:#000000;stop-opacity:1;"
         offset="0"
         id="stop3773" />
      <stop
         id="stop3781"
         offset="0.23567708"
         style="stop-color:#1d1d1d;stop-opacity:1;" />
      <stop
         style="stop-color:#4a4a4a;stop-opacity:1;"
         offset="0.94270831"
         id="stop3783" />
      <stop
         id="stop3779"
         offset="1"
         style="stop-color:#8e8e8e;stop-opacity:1;" />
    </linearGradient>
    <linearGradient
       inkscape:collect="always"
       id="linearGradient3763">
      <stop
         style="stop-color:#ffffff;stop-opacity:1;"
         offset="0"
         id="stop3765" />
      <stop
         style="stop-color:#ffffff;stop-opacity:0;"
         offset="1"
         id="stop3767" />
    </linearGradient>
    <linearGradient
       inkscape:collect="always"
       xlink:href="#linearGradient3763"
       id="linearGradient3769"
       x1="677.14288"
       y1="345.21933"
       x2="697.14539"
       y2="345.21933"
       gradientUnits="userSpaceOnUse" />
    <filter
       inkscape:collect="always"
       id="filter3849"
       color-interpolation-filters="sRGB">
      <feGaussianBlur
         inkscape:collect="always"
         stdDeviation="10.428363"
         id="feGaussianBlur3851" />
    </filter>
  </defs>
  <sodipodi:namedview
     id="base"
     pagecolor="#ffffff"
     bordercolor="#666666"
     borderopacity="1.0"
     inkscape:pageopacity="0.0"
     inkscape:pageshadow="2"
     inkscape:zoom="0.7"
     inkscape:cx="-145.92558"
     inkscape:cy="465.79"
     inkscape:document-units="px"
     inkscape:current-layer="layer1"
     showgrid="false"
     inkscape:window-width="1680"
     inkscape:window-height="1006"
     inkscape:window-x="0"
     inkscape:window-y="0"
     inkscape:window-maximized="1" />
  <metadata
     id="metadata7">
    <rdf:RDF>
      <cc:Work
         rdf:about="">
        <dc:format>image/svg+xml</dc:format>
        <dc:type
           rdf:resource="http://purl.org/dc/dcmitype/StillImage" />
        <dc:title></dc:title>
      </cc:Work>
    </rdf:RDF>
  </metadata>
  <g
     inkscape:label="Layer 1"
     inkscape:groupmode="layer"
     id="layer1"
     transform="translate(0,-540.36218)">
    <path
       sodipodi:nodetypes="sssscccssccscsss"
       inkscape:connector-curvature="0"
       id="path3807"
       d="m 631.85343,640.93361 c 71.8467,-75.34 -126.15578,-209.88466 -93.91382,-314.28572 14.25539,-46.15967 65.73893,-81.05201 109.14308,-80 43.65892,1.05818 101.33553,36.91732 106.60488,85.71429 2.82371,26.14908 -45.6878,60 -45.6878,60 L 758.764,478.07647 639.46807,366.64789 c 0,0 54.91427,168.61001 106.60487,234.28572 55.35143,70.32699 66.28911,70.04217 71.06992,125.71428 4.42895,51.57473 -43.14959,114.28572 -43.14959,114.28572 l -616.78536,0 c 0,0 -170.8312,-89.40318 -129.448776,-137.14286 21.455901,-24.75201 167.521946,-5.71429 167.521946,-5.71429 0,0 -119.647713,-22.90104 -131.986988,-71.42857 C 39.972899,534.93099 194.56999,482.94964 279.04205,475.21932 406.05426,463.59601 538.6121,738.7085 631.85343,640.93361 z"
       style="fill:#ffffff;fill-opacity:1;stroke:#ffffff;stroke-width:16.72257042;stroke-linecap:butt;stroke-linejoin:miter;stroke-miterlimit:4;stroke-opacity:1;stroke-dasharray:none;filter:url(#filter3849)"
       transform="matrix(0.5979942,0,0,0.5979942,5.2226353,471.18539)" />
    <path
       style="fill:#cecece;fill-opacity:1;stroke:#2e2e2e;stroke-width:10;stroke-linecap:butt;stroke-linejoin:miter;stroke-miterlimit:4;stroke-opacity:1;stroke-dasharray:none"
       d="M 383.06732,854.45997 C 426.03123,809.40709 307.6269,728.95016 326.9074,666.51893 c 8.52464,-27.60321 39.3115,-48.46863 65.26693,-47.83953 26.10778,0.63278 60.59806,22.07634 63.7491,51.25665 1.68856,15.63699 -27.32104,35.87965 -27.32104,35.87965 l 30.35672,51.25665 -71.33828,-66.63365 c 0,0 32.83842,100.82781 63.7491,140.1015 33.09983,42.05514 39.6405,41.88481 42.4994,75.17641 2.64848,30.84139 -25.80321,68.3422 -25.80321,68.3422 l -368.834066,0 c 0,0 -102.1560671,-53.46258 -77.409618,-82.01063 12.830505,-14.80156 100.177154,-3.41712 100.177154,-3.41712 0,0 -71.54864,-13.69468 -78.927455,-42.71387 -13.945938,-54.84617 78.502225,-85.93072 129.016025,-90.5534 75.95257,-6.95067 155.22139,157.565 210.97916,99.09618 z"
       id="path2985"
       inkscape:connector-curvature="0"
       sodipodi:nodetypes="sssscccssccscsss" />
    <path
       style="fill:#cecece;fill-opacity:1;stroke:#2e2e2e;stroke-width:10;stroke-linecap:round;stroke-linejoin:miter;stroke-miterlimit:4;stroke-opacity:1;stroke-dasharray:none;stroke-dashoffset:0"
       d="m 145.72768,555.22825 c -62.329279,0 -112.875002,50.51447 -112.875002,112.84375 0,62.32928 50.545723,112.875 112.875002,112.875 62.32928,0 112.84375,-50.54572 112.84375,-112.875 0,-62.32928 -50.51447,-112.84375 -112.84375,-112.84375 z m -16.625,19.125 33.25,0 0,114.28125 -33.25,0 0,-114.28125 z m 16.625,138 c 11.83467,0 21.40625,9.60283 21.40625,21.4375 0,11.83467 -9.57158,21.4375 -21.40625,21.4375 -11.83467,0 -21.4375,-9.60283 -21.4375,-21.4375 0,-11.83467 9.60283,-21.4375 21.4375,-21.4375 z"
       id="path3127"
       inkscape:connector-curvature="0" />
  </g>
</svg>
